<?xml version="1.0" standalone="no"?><!DOCTYPE svg PUBLIC "-//W3C//DTD SVG 1.1//EN" "http://www.w3.org/Graphics/SVG/1.1/DTD/svg11.dtd"><svg t="1622365085658" class="icon" viewBox="0 0 1024 1024" version="1.1" xmlns="http://www.w3.org/2000/svg" p-id="4098" xmlns:xlink="http://www.w3.org/1999/xlink" width="200" height="200"><defs><style type="text/css"></style></defs><path d="M512 384m-170.666667 0a170.666667 170.666667 0 1 0 341.333334 0 170.666667 170.666667 0 1 0-341.333334 0Z" fill="#444444" p-id="4099"></path><path d="M405.034667 605.44l58.496 87.509333-37.12 128.682667 33.450666 31.701333H213.333333a256.128 256.128 0 0 1 191.701334-247.893333z m405.461333 238.293333L810.666667 853.333333H564.821333l33.450667-31.701333-36.48-126.976 59.306667-88.618667a256.128 256.128 0 0 1 189.397333 237.696zM554.666667 597.333333c7.808 0 15.530667 0.341333 23.168 1.024l-56.149334 85.930667 34.816 127.402667L511.914667 853.333333l-43.776-41.642666 34.218666-127.488L447.573333 598.229333A259.413333 259.413333 0 0 1 469.333333 597.333333h85.333334z" fill="#444444" p-id="4100"></path></svg>