<?xml version="1.0" encoding="UTF-8"?>
<svg width="100px" height="100px" viewBox="0 0 100 100" version="1.1" xmlns="http://www.w3.org/2000/svg" xmlns:xlink="http://www.w3.org/1999/xlink">
    <title>一站式服务</title>
    <g id="首页" stroke="none" stroke-width="1" fill="none" fill-rule="evenodd">
        <g id="首页（最新）-选择行业" transform="translate(-910.000000, -3493.000000)">
            <g id="热门国家/城市" transform="translate(240.000000, 3242.000000)">
                <g id="一站式服务" transform="translate(669.999488, 251.000000)">
                    <circle id="椭圆形备份-2" fill="#F3F3F3" opacity="0.797238372" cx="49.5432618" cy="49.5432618" r="49.5432618"></circle>
                    <g id="一站式" transform="translate(30.543262, 29.543262)" fill="#666666" fill-rule="nonzero">
                        <path d="M28.45531,20.6746358 L28.45531,23.4018655 C28.45531,24.1542492 29.1135921,24.8125312 29.8659757,24.8125312 C30.6183594,24.8125312 31.2766414,24.1542492 31.2766414,23.4018655 L31.2766414,16.819475 C31.1825398,16.2552947 30.8065628,15.6911143 30.2423824,15.502911 C29.6782021,15.3147076 29.0199201,15.502911 28.6439431,15.9729897 C26.669097,18.4179144 24.4123756,20.9569408 21.9674509,23.4018655 C17.3685003,27.9999568 13.2306048,31.2973825 9.99591356,33.4325022 L9.79567895,33.2962911 C7.67860618,31.8546878 5.9340729,29.8965996 4.75114183,27.6338626 C3.56047638,25.3565162 2.93098346,22.7547554 2.93098346,20.1104554 C2.93098346,17.9628748 3.35723396,15.873302 4.19856306,13.8993154 C5.01067338,11.9932194 6.17126067,10.2779049 7.64809833,8.80106726 C9.12493598,7.3242296 10.8402505,6.16364231 12.7463464,5.35153199 C14.7203331,4.51063258 16.8103356,4.08395239 18.9574865,4.08395239 C19.9612377,4.08395239 20.9795982,4.17633531 21.9837791,4.35895271 L21.9902244,4.35981209 C22.7507722,4.48699974 23.4627652,4.00703824 23.6105778,3.26797488 C23.6776092,2.93281824 23.5942497,2.5581303 23.3824135,2.24016118 C23.1701476,1.92176238 22.8564754,1.70090274 22.5213188,1.63387142 L22.5075687,1.63129329 C21.344833,1.437504 20.183816,1.34340233 18.9574865,1.34340233 C16.4167413,1.34340233 13.9550588,1.8384029 11.6407592,2.81422435 C9.40466287,3.75738951 7.39801991,5.1078989 5.67668978,6.82922902 C3.95535966,8.55055915 2.60442058,10.5572021 1.66168511,12.7932985 C0.685863664,15.107598 0.190863088,17.5692806 0.190863088,20.1100257 C0.190863088,23.3356935 1.06527817,26.5712442 2.67832692,29.4063256 C0.042620728,33.8235182 -0.486754888,36.7754748 1.09105945,38.3532891 C1.65523979,38.9174695 2.50172515,39.1997745 3.4418825,39.1997745 C8.70770894,39.1997745 18.3933061,31.018515 24.0355393,25.3767115 C25.6339786,23.7778425 27.0446443,22.2735048 28.45531,20.6746358 L28.45531,20.6746358 Z M3.0659055,36.3784431 C3.0659055,36.3784431 2.6362175,35.4322701 4.40825081,31.9771489 C5.22594707,32.9959392 6.24344826,33.97262 7.5058716,34.953168 C5.11165006,36.2826227 3.52824978,36.725631 3.0659055,36.3784431 L3.0659055,36.3784431 Z M35.2903571,10.9164213 L35.2508258,10.87689 C35.2469586,10.870015 35.2396539,10.8554056 35.2340679,10.8442337 C35.2276226,10.8309134 35.2198882,10.816304 35.2117242,10.8004055 C37.974618,6.2607518 38.4850873,3.33844371 36.9184449,1.68027772 C32.9687528,-2.26898469 20.6504572,7.98079286 13.9739651,14.657285 C12.3755257,16.2557244 10.96486,17.7604917 9.5541943,19.3589311 L9.5541943,15.8797474 C9.5541943,15.1273637 8.89591228,14.4690817 8.14352859,14.4690817 C7.3911449,14.4690817 6.73286289,15.1273637 6.73286289,15.8797474 L6.73286289,23.2145215 C6.73286289,23.7787019 7.10883989,24.3428822 7.67302023,24.5310856 C7.86122358,24.6251872 7.95532525,24.6251872 8.1430989,24.6251872 C8.5190759,24.6251872 8.98958426,24.4369839 9.27145959,24.0610069 C11.2463056,21.6160822 13.503027,19.0770558 15.9479517,16.6321311 C20.4463554,12.1337274 24.5038992,8.88055954 27.7067935,6.74200236 L27.8352703,6.8300884 C30.0086322,8.32454326 31.7991421,10.3127096 33.0130107,12.5793138 C34.241059,14.8729884 34.8898878,17.4773274 34.8898878,20.1108851 C34.8898878,22.2584657 34.4636373,24.3480385 33.6223082,26.3220251 C32.8101979,28.2281211 31.6496106,29.9434356 30.172773,31.4202733 C28.6959353,32.8971109 26.9806208,34.0576982 25.0745249,34.8698085 C23.1005382,35.7107079 21.0105358,36.1373881 18.8633848,36.1373881 C17.6834616,36.1373881 16.3161944,35.9779739 14.9098255,35.6767626 L14.9042396,35.6754735 C14.5750986,35.6097313 14.2111528,35.6690282 13.9060744,35.838755 C13.570488,36.0252396 13.3388862,36.3285993 13.2701361,36.6706309 C13.2043939,36.9997719 13.2636908,37.3637177 13.4334176,37.6687962 C13.617324,37.9996559 13.9142384,38.229539 14.2506841,38.3012969 C15.6871311,38.6832895 17.207797,38.8770788 18.7697128,38.8770788 C21.310458,38.8770788 23.7721405,38.3820782 26.0864401,37.4062568 C28.3225364,36.4630916 30.3291794,35.1125822 32.0505095,33.3912521 C33.7718397,31.669922 35.1227787,29.663279 36.0655142,27.4271827 C37.0396169,25.1167503 37.5346175,22.6597943 37.5363362,20.1237757 C37.7172349,17.0910378 36.9511012,13.9263857 35.3200055,10.9697026 L35.2903571,10.9164213 Z M34.8494972,3.65426439 C34.9401613,3.83602242 35.0308255,5.15817239 33.3425814,8.2983323 C32.515432,7.23872169 31.4768761,6.22637676 30.1753511,5.21102402 C32.7001978,3.77973329 34.3721138,3.29633429 34.8494972,3.65426439 L34.8494972,3.65426439 Z" id="形状"></path>
                    </g>
                </g>
            </g>
        </g>
    </g>
</svg>