<?xml version="1.0" encoding="UTF-8"?>
<svg width="100px" height="100px" viewBox="0 0 100 100" version="1.1" xmlns="http://www.w3.org/2000/svg" xmlns:xlink="http://www.w3.org/1999/xlink">
    <title>专属客户顾问</title>
    <g id="首页" stroke="none" stroke-width="1" fill="none" fill-rule="evenodd">
        <g id="首页（最新）-选择行业" transform="translate(-710.000000, -3493.000000)">
            <g id="热门国家/城市" transform="translate(240.000000, 3242.000000)">
                <g id="专属客户顾问" transform="translate(469.999488, 251.000000)">
                    <circle id="椭圆形备份" fill="#F3F3F3" opacity="0.797238372" cx="49.5432618" cy="49.5432618" r="49.5432618"></circle>
                    <g id="文件管理备份" transform="translate(27.543262, 27.543262)" fill="#666666" fill-rule="nonzero">
                        <g id="专属客服">
                            <path d="M13.0750621,21.5748493 C10.7684969,19.2171083 9.4980384,16.1169523 9.4980384,12.8456087 C9.4980384,5.92823346 15.1255762,0.3007816 22.0429514,0.3007816 C28.9604126,0.3007816 34.5878645,5.92823346 34.5878645,12.8456087 C34.5878645,18.7499515 30.487137,23.714137 24.9845095,25.0411854 C24.3998331,26.0600186 23.3018513,26.746703 22.0429514,26.746703 C20.170543,26.746703 18.6524553,25.2286153 18.6524553,23.3562069 C18.6524553,21.4837555 20.170586,19.9656678 22.0429514,19.9656678 C23.2475388,19.9656678 24.3044423,20.5944732 24.9060485,21.5411188 C28.5558184,20.3361877 31.1973683,16.8940861 31.1973683,12.8456087 C31.1973683,7.79802079 27.0907112,3.69123476 22.0429514,3.69123476 C16.9953635,3.69123476 12.8885775,7.79802079 12.8885775,12.8456087 C12.8885775,15.2253497 13.8157153,17.4834461 15.4986743,19.2041747 C16.153304,19.8732848 16.1417024,20.9463877 15.4725063,21.6013611 C14.8030524,22.2559478 13.7299496,22.2443892 13.0750621,21.5748493 M40.29975,27.8496691 C38.8614124,26.5858278 37.1171799,25.4938617 35.1150057,24.6041927 C34.259411,24.2240477 33.2578082,24.6094779 32.8774054,25.4650296 C32.4973034,26.3206244 32.8826906,27.3225279 33.7382854,27.7026299 C35.4265725,28.4529081 36.8814101,29.3591631 38.061806,30.3964729 C39.5170304,31.6752244 40.3517423,33.52675 40.3517423,35.4772757 L40.3517423,38.6134824 C40.3517423,39.5481827 39.5911945,40.3087305 38.6564942,40.3087305 L5.42945163,40.3087305 C4.49479429,40.3087305 3.73420356,39.5481827 3.73420356,38.6134824 L3.73420356,35.4772757 C3.73420356,33.526707 4.56895844,31.6752244 6.02413982,30.3964729 C7.44486023,29.1478855 10.0113007,27.4330866 14.1683173,26.3533666 C15.0745293,26.1179405 15.6182135,25.1922207 15.3828304,24.2863095 C15.1473614,23.3800545 14.2218994,22.8364133 13.3157303,23.0717964 C8.51439663,24.3190947 5.48346341,26.358351 3.78619581,27.8496691 C1.59831045,29.7717065 0.343707431,32.5519598 0.343707431,35.4772757 L0.343707431,38.6134824 C0.343707431,41.4179701 2.62500696,43.6992696 5.42945163,43.6992696 L38.6564512,43.6992696 C41.4609389,43.6992696 43.7422384,41.4179701 43.7422384,38.6135254 L43.7422384,35.4773186 C43.7422384,32.5519598 42.4875924,29.7717065 40.29975,27.8496691 M6.58668735,16.2361478 C5.6309753,16.2361478 4.84907205,15.4542016 4.84907205,14.4985325 L4.84907205,10.9384815 C4.84907205,9.98276943 5.63101827,9.20086618 6.58668735,9.20086618 C7.54235643,9.20086618 8.32430266,9.9828124 8.32430266,10.9384815 L8.32430266,14.4985325 C8.32430266,15.4542445 7.54235643,16.2361478 6.58668735,16.2361478 M37.5134382,16.2361478 C36.5577691,16.2361478 35.7758229,15.4542016 35.7758229,14.4985325 L35.7758229,10.9384815 C35.7758229,9.98276943 36.5577691,9.20086618 37.5134382,9.20086618 C38.4691502,9.20086618 39.2510535,9.9828124 39.2510535,10.9384815 L39.2510535,14.4985325 C39.2510965,15.4542445 38.4691502,16.2361478 37.5134382,16.2361478" id="形状"></path>
                        </g>
                    </g>
                </g>
            </g>
        </g>
    </g>
</svg>