<?xml version="1.0" encoding="UTF-8"?>
<svg width="100px" height="100px" viewBox="0 0 100 100" version="1.1" xmlns="http://www.w3.org/2000/svg" xmlns:xlink="http://www.w3.org/1999/xlink">
    <title>精准匹配</title>
    <g id="首页" stroke="none" stroke-width="1" fill="none" fill-rule="evenodd">
        <g id="首页（最新）-选择行业" transform="translate(-1110.000000, -3493.000000)">
            <g id="热门国家/城市" transform="translate(240.000000, 3242.000000)">
                <g id="精准匹配" transform="translate(869.999488, 251.000000)">
                    <circle id="椭圆形备份-3" fill="#F3F3F3" opacity="0.797238372" cx="49.5432618" cy="49.5432618" r="49.5432618"></circle>
                    <g id="匹配" transform="translate(30.043262, 29.837410)" fill="#666666" fill-rule="nonzero">
                        <path d="M31.2085359,20.0000256 C31.2085359,26.5625645 25.8681156,31.9029848 19.3056197,31.9029848 C12.7429949,31.9029848 7.4025746,26.5625645 7.4025746,20.0000256 C7.4025746,13.4374867 12.7429949,8.09706644 19.3056197,8.09706644 C21.2894462,8.09706644 23.166882,8.58416075 24.8142628,9.46093912 C24.1500511,10.1163422 23.4769449,10.7805969 22.8215847,11.4448086 C21.7411343,11.0019722 20.554293,10.7539992 19.3056197,10.7539992 C14.2132153,10.7539992 10.0595074,14.9076642 10.0595074,20.0000686 C10.0595074,25.1013675 14.2132153,29.2461379 19.3056197,29.2461379 C24.4069186,29.2461379 28.5516461,25.1013675 28.5516461,20.0000686 C28.5516461,18.326219 28.1088096,16.7674828 27.3294845,15.4124617 C27.9848446,14.7571015 28.6225876,14.11055 29.25135,13.4817875 C30.4911288,15.3593093 31.2085359,17.5999173 31.2085359,20.0000256 Z M38.5556136,20.0000256 C38.5556136,30.6213544 29.9268625,39.250048 19.3056197,39.250048 C8.69335736,39.250048 0.0555543368,30.6213544 0.0555543368,20.0000256 C0.0555543368,9.38784919 8.69335736,0.7500032 19.3056197,0.7500032 C22.3402482,0.7500032 25.2195446,1.45383214 27.7789382,2.71526721 C27.0384998,3.4556626 26.2980614,4.19601502 25.7040178,4.78099227 C23.7386678,3.9492452 21.5724817,3.49218608 19.3056197,3.49218608 C10.2015622,3.49218608 2.79769425,10.8960111 2.79769425,20.0000256 C2.79769425,29.1040401 10.2015193,36.5078651 19.3056197,36.5078651 C28.4095912,36.5078651 35.8134163,29.1040401 35.8134163,20.0000256 C35.8134163,17.2852998 35.1553061,14.7259062 33.994461,12.4681965 L33.9944755,12.4681818 C34.663272,11.7902502 35.3366662,11.1168689 36.0146107,10.4480896 C37.632429,13.2634054 38.5556136,16.5266279 38.5556136,20.0000109 L38.5556136,20.0000256 Z M37.5776292,6.24347834 C37.4313635,6.19780251 37.3674259,6.18865015 37.2393359,6.17034544 C35.8317639,6.05149374 34.4423678,5.93268501 33.0347958,5.81383331 C32.760526,5.78641922 32.6690454,5.68591519 32.6417173,5.4207977 C32.5959555,4.51587477 32.4954515,3.64751829 32.4222326,2.77005243 C32.3765998,2.13935638 32.3218145,1.49950798 32.2485957,0.823093129 C32.1936816,0.896183058 32.1755058,0.914487766 32.1755058,0.914487766 L26.7734253,6.2983495 C26.6820306,6.38974414 26.6272454,6.51770522 26.6545736,6.66392805 C26.7276635,7.58711272 26.8008394,8.48292626 26.9013864,9.41526328 C26.9196911,9.68038078 26.8466011,9.84490831 26.6820306,10.0185882 L26.590636,10.1099828 C25.9325259,10.7589836 25.2744587,11.4170937 24.6162626,12.0752468 C23.1263624,13.5468853 21.6455716,15.0276331 20.1648238,16.5083809 L19.7901359,16.8831548 C19.6986553,17.0020065 19.5981083,17.1025105 19.4975613,17.1939051 C18.9398693,17.9068864 19.2782056,18.9214658 20.1373668,19.1956926 C20.6950588,19.3602202 21.1337703,19.1682785 21.5176106,18.7752 C21.7735757,18.5101254 22.0386932,18.2542462 22.2946583,17.9891287 C23.7022303,16.5815138 25.1098022,15.1647465 26.5175031,13.7570457 L28.455396,11.8192387 L28.5010288,11.7735629 C28.6472946,11.599883 28.7934745,11.5542072 29.0128302,11.5725119 C29.9177531,11.6730589 30.8136097,11.7461918 31.7185326,11.8467388 C31.9378883,11.8650005 32.0841971,11.7919106 32.230334,11.6456018 L37.3857306,6.49037707 C37.4586486,6.41715823 37.6415668,6.27089244 37.5776292,6.24347834 Z M23.8915938,18.9881104 C23.286679,19.6023064 22.8649403,20.0239592 22.8375262,20.0514593 C21.9940486,20.9131126 21.1140906,21.0873081 20.5275235,21.0873081 C20.2249372,21.0873081 19.9223939,21.0414174 19.6200224,20.949765 C18.59324,20.6289599 17.8324344,19.8589161 17.529977,18.8780673 C17.2273907,17.9155661 17.4290433,16.8613696 18.0524347,16.0639116 C18.1165441,15.9814545 18.1899778,15.9081068 18.2632396,15.834759 C18.2907826,15.8164543 18.3181967,15.7981066 18.3365444,15.7706066 L18.3365444,15.7706066 C18.3835466,15.7054535 18.435676,15.6441572 18.4924352,15.5873017 L18.7399354,15.3398014 C16.411671,15.6239541 14.6057353,17.5948041 14.6057353,19.9965022 C14.6057353,22.5906146 16.7139995,24.6990076 19.3082408,24.6990076 C21.9024821,24.6990076 24.0015939,22.5906146 24.0015939,19.9964592 C24.0015939,19.6481111 23.9649845,19.3089584 23.8915938,18.9881104 L23.8915938,18.9881104 Z" id="形状"></path>
                    </g>
                </g>
            </g>
        </g>
    </g>
</svg>