<?xml version="1.0" encoding="UTF-8"?>
<svg width="100px" height="100px" viewBox="0 0 100 100" version="1.1" xmlns="http://www.w3.org/2000/svg" xmlns:xlink="http://www.w3.org/1999/xlink">
    <title>覆盖范围广</title>
    <g id="首页" stroke="none" stroke-width="1" fill="none" fill-rule="evenodd">
        <g id="首页（最新）-选择行业" transform="translate(-1310.000000, -3493.000000)">
            <g id="热门国家/城市" transform="translate(240.000000, 3242.000000)">
                <g id="覆盖范围广" transform="translate(1069.999487, 251.000000)">
                    <circle id="椭圆形备份-4" fill="#F3F3F3" opacity="0.797238372" cx="49.5432618" cy="49.5432618" r="49.5432618"></circle>
                    <g id="全球" transform="translate(27.543262, 27.664498)" fill="#666666" fill-rule="nonzero">
                        <path d="M43.7319016,12.98025 L43.7319017,12.9802504 C43.0965754,11.8435305 41.8983547,11.1370074 40.5961509,11.1312805 L40.5961518,11.1312806 C39.0754695,11.0100348 37.5453353,11.0983117 36.0486776,11.3936342 L36.0486776,11.3936343 C35.4160088,10.4391863 34.6876458,9.55175247 33.874886,8.74511227 L33.874886,8.74511223 C32.2650142,7.13901519 30.3547495,5.86550662 28.2530354,4.99720168 L28.2530347,4.99720141 C19.2311782,1.19405453 8.83445687,5.42464522 5.03132144,14.4464751 C3.49524683,18.0903567 3.22160455,22.1432242 4.25391032,25.9605052 L4.25390945,25.9605059 C3.09767178,26.8708205 2.05345858,27.9150337 1.14314399,29.0712713 C0.0062792651,30.5579394 -0.268567865,31.8822042 0.256137173,33.0065591 C0.780846022,34.130933 1.99267079,34.7805689 3.89161148,34.9054998 L4.6037128,34.9054998 L4.60371193,34.9054998 C6.19310883,34.8725602 7.77517367,34.6800336 9.32608014,34.3308201 L9.32607989,34.3308199 C16.5074882,40.9753832 27.7156539,40.5401498 34.3601791,33.3587567 C37.4105266,30.0619523 39.0947102,25.7295708 39.0719858,21.2381069 L39.0719858,20.5260056 L39.0719858,20.5260056 C40.4723659,19.489887 41.7322093,18.2762359 42.8198925,16.9155205 C43.9442664,15.453834 44.2565936,14.1170784 43.7318847,12.9802327 L43.7319016,12.98025 Z M41.1583358,14.1670894 L41.1583358,14.1670892 C41.0117424,14.6851675 40.7367256,15.1578504 40.3587798,15.5413248 L40.3587805,15.541324 C39.8271361,16.1735277 39.2419598,16.7587041 38.6097561,17.2903494 L38.6097563,17.2903494 C38.3845155,16.2982041 38.07094,15.3282074 37.6727787,14.3919656 C37.6727787,14.2670352 37.5603413,14.129612 37.4978762,14.0046823 L37.4978762,14.0046823 C38.3458817,13.8836542 39.2040864,13.8501632 40.0589436,13.9047376 L40.0589436,13.9047376 C40.4403705,13.9092246 40.8159791,13.9988582 41.1583358,14.1670912 L41.1583358,14.1670894 Z M7.13978414,31.8822137 L7.13978414,31.8822136 C6.23535273,32.0308461 5.32037506,32.1060498 4.40380745,32.1070884 L4.40380757,32.1070884 C3.8590166,32.1495163 3.31250223,32.0505408 2.81719013,31.8197485 L2.81719013,31.8197489 C2.95582999,31.3543103 3.19945203,30.9269008 3.52929146,30.5704441 L3.5292919,30.5704435 C4.05657822,29.9075352 4.64190328,29.2929429 5.27831632,28.733968 L5.27831622,28.733968 C5.78820464,29.8449628 6.41203537,30.9000311 7.13978414,31.8822135 L7.13978414,31.8822137 Z M36.123622,19.2642578 L36.123622,19.2642573 C32.1664486,22.0261078 27.9586205,24.410268 23.5556141,26.3852706 L23.5556195,26.3852681 C19.2745471,28.3958481 14.821669,30.0181229 10.2505172,31.2325824 L10.2505162,31.2325824 C4.76360131,25.0967244 5.28965609,15.6745599 11.4255206,10.187645 C17.5613774,4.70073011 26.9835419,5.22678488 32.4704568,11.3626493 C34.4451315,13.5708669 35.7169663,16.3174471 36.123622,19.2517552 L36.123622,19.2642578 Z M36.1985795,22.6373796 L36.1985793,22.6373796 C35.479062,30.3138083 29.0543459,36.1927574 21.3443663,36.2298767 L21.3443662,36.2298767 C18.2695633,36.2384947 15.2688663,35.286309 12.7616302,33.5063359 L12.7616302,33.5063365 C16.8595347,32.2860396 20.8636058,30.7704208 24.7424257,28.9713684 L24.7424294,28.9713667 C28.7281608,27.1534408 32.5703395,25.0360408 36.2360227,22.6373796 L36.1985795,22.6373796 Z M16.4970522,11.3811343 L16.4970523,11.3811343 C16.1905202,11.2916996 15.8606926,11.3323633 15.58506,11.4935717 L15.5850605,11.4935714 C12.1594819,13.4339689 9.8732655,16.9004933 9.43848964,20.8133617 L9.43848967,20.8133615 C9.3594114,21.4570951 9.81715569,22.0430493 10.4608897,22.1221272 C10.4698827,22.1232319 10.4788882,22.1242325 10.4879043,22.1251288 L10.6253279,22.1251288 L10.6253279,22.1251288 C11.224524,22.1018626 11.7226728,21.6561519 11.8121673,21.0632203 L11.8121671,21.0632221 C12.1798236,17.9079496 14.0382287,15.1203321 16.8093634,13.5674086 L16.8093634,13.5674086 C17.0872242,13.4120587 17.2901104,13.1505606 17.3715485,12.8428127 L17.3715485,12.8428126 C17.4603982,12.5403583 17.4196773,12.2145895 17.2591111,11.943315 L17.2591111,11.943315 C17.1029513,11.6505087 16.8228902,11.4439042 16.4970351,11.3811299 L16.4970522,11.3811343 Z M22.3812629,9.91944776 L22.3812627,9.91944775 C21.3099556,9.85673296 20.235034,9.93231343 19.1830464,10.1443225 L19.1830464,10.1443226 C18.5561158,10.432449 18.2814593,11.1742491 18.5695827,11.8011835 C18.7288095,12.1476442 19.0375415,12.4024233 19.4079189,12.4930161 L19.6452863,12.4930161 L19.6452854,12.4930161 C20.4953117,12.3170983 21.3648329,12.2540895 22.231342,12.3056202 L22.231342,12.3056202 C22.546854,12.3403057 22.8617613,12.2353362 23.0933635,12.0182803 L23.0933634,12.0182804 C23.3152939,11.8164605 23.4571972,11.5415253 23.4931686,11.2437136 L23.4931686,11.2437049 C23.4970214,10.6040204 23.0170728,10.064758 22.3812545,9.9944077 L22.3812629,9.91944776 Z M35.1616449,-2.287692e-05 L35.1616448,-2.287692e-05 C33.5333114,-2.287692e-05 32.2132864,1.3200021 32.2132864,2.94833551 C32.2132864,4.57666892 33.5333114,5.89669389 35.1616448,5.89669389 C36.7899782,5.89669389 38.1100032,4.57666892 38.1100032,2.94833551 C38.1100032,2.94833551 38.1100032,2.94833551 38.1100032,2.94833551 L38.1100032,2.94833564 C38.1100032,1.32000223 36.7899782,-2.287692e-05 35.1616448,-2.287692e-05 L35.1616449,-2.287692e-05 Z M36.2360442,2.94833551 L36.2360442,2.94833551 C36.2360442,3.55551184 35.743832,4.04772403 35.1366557,4.04772403 C34.5294794,4.04772403 34.0372672,3.55551184 34.0372672,2.94833551 C34.0372672,2.34115917 34.5294794,1.84894699 35.1366557,1.84894699 L35.1366557,1.84894699 C35.7368889,1.84200716 36.2291049,2.32296821 36.2360443,2.9232014 C36.2361411,2.93157824 36.2361411,2.93995592 36.2360443,2.94833276 L36.2360442,2.94833551 Z" id="形状"></path>
                    </g>
                </g>
            </g>
        </g>
    </g>
</svg>