<?xml version="1.0" encoding="UTF-8"?>
<svg width="100px" height="100px" viewBox="0 0 100 100" version="1.1" xmlns="http://www.w3.org/2000/svg" xmlns:xlink="http://www.w3.org/1999/xlink">
    <title>海量</title>
    <g id="首页" stroke="none" stroke-width="1" fill="none" fill-rule="evenodd">
        <g id="首页（最新）-选择行业" transform="translate(-510.000000, -3493.000000)">
            <g id="热门国家/城市" transform="translate(240.000000, 3242.000000)">
                <g id="海量" transform="translate(269.999488, 251.000000)">
                    <circle id="椭圆形" fill="#F3F3F3" opacity="0.797238372" cx="49.5432618" cy="49.5432618" r="49.5432618"></circle>
                    <g id="编组-13" transform="translate(25.938564, 27.870226)" fill="#666666" fill-rule="nonzero">
                        <path d="M39.4489273,26.9742874 L39.2532565,26.9742874 L39.2532565,4.69047868 L39.2532566,4.69050214 C39.2376527,2.08992689 37.1209221,-0.00779629822 34.5203137,2.59304722e-05 L14.3038208,2.59304722e-05 L14.3038205,2.59304722e-05 C11.7736087,-0.00828841164 9.68881839,1.98384437 9.58219862,4.51182403 L8.07071247,4.51182403 L8.07071223,4.51182402 C5.44597722,4.50397332 3.31054663,6.62290653 3.29804581,9.24762493 L3.29804581,26.9912592 L3.29804589,26.9912592 C1.43469788,27.1689492 0.00902817353,28.7294661 0,30.601244 L0,38.3430024 L0,38.3429788 C0.00936392969,40.3532959 1.6450018,41.9762703 3.65533555,41.9700188 L39.4488937,41.9700188 L39.4488935,41.9700188 C41.4592328,41.9762934 43.0948964,40.3533291 43.1042735,38.3430009 L43.1042735,30.6012425 L43.1042735,30.6012662 C43.0949095,28.5909491 41.4592717,26.9679746 39.4489379,26.9742444 L39.4489273,26.9742874 Z M14.3038317,2.83579532 L34.5203246,2.83579532 L34.5203247,2.83579532 C35.5560596,2.82487658 36.4050244,3.6548047 36.4174809,4.69052299 L36.4174809,26.9743317 L26.0072374,26.9743317 L26.0072374,26.9743317 C25.2703979,26.9714735 24.6541689,27.5334734 24.589333,28.2674606 L24.589333,28.2674603 C24.4113672,29.9479651 22.9047794,31.1660115 21.2242746,30.9880479 C19.7893774,30.8360923 18.655641,29.7023575 18.503687,28.2674603 L18.5036871,28.2674608 C18.4388506,27.5334737 17.8226221,26.9714739 17.0857826,26.9743319 L12.4066978,26.9743319 L12.4066978,4.69052321 L12.4066978,4.69052918 C12.419153,3.6548109 13.2681135,2.82488261 14.3038484,2.83579532 L14.3038317,2.83579532 Z M8.06505205,7.34762048 L9.56519497,7.34762048 L9.56519497,26.9742985 L6.13386612,26.9742985 L6.13386612,9.24766793 L6.13386612,9.24767234 C6.1463254,8.18912911 7.01213054,7.3397988 8.07071808,7.34762048 L8.06505205,7.34762048 Z M40.268515,38.3430675 L40.268515,38.3430677 C40.2546662,38.7852312 39.891314,39.1360086 39.4489384,39.1342649 L3.65538024,39.1342649 L3.65538029,39.1342649 C3.21300407,39.1360104 2.84965054,38.7852312 2.83583151,38.3430677 L2.83583151,30.6013093 L2.83583151,30.6013091 C2.84965254,30.1591456 3.21300463,29.8083682 3.6553803,29.8101119 L15.9457873,29.8101119 L15.9457874,29.8101119 C16.9831285,32.9064456 20.3341297,34.5755795 23.4304398,33.5382384 C25.1890955,32.9490492 26.5693702,31.5687746 27.1585593,29.8101119 L39.4489663,29.8101119 L39.4489662,29.8101119 C39.8913425,29.8083669 40.254696,30.159146 40.268515,30.6013096 L40.268515,38.3430675 Z" id="形状"></path>
                        <path d="M18.1208194,10.668386 L30.7032815,10.668386 L30.7032815,10.668386 C31.4863691,10.668386 32.121186,10.0335692 32.121186,9.25048159 C32.121186,8.467394 31.4863691,7.83257712 30.7032815,7.83257712 L18.1208195,7.83257712 L18.1208196,7.83257712 C17.337732,7.83257712 16.7029151,8.467394 16.7029151,9.25048159 C16.7029151,10.0335692 17.337732,10.668386 18.1208196,10.668386 C18.1208196,10.668386 18.1208196,10.668386 18.1208196,10.668386 L18.1208194,10.668386 Z M18.1208194,16.1953776 L30.7032815,16.1953776 L30.7032815,16.1953776 C31.4863691,16.1953776 32.121186,15.5605608 32.121186,14.7774732 C32.121186,13.9943856 31.4863691,13.3595687 30.7032815,13.3595687 L18.1208195,13.3595687 L18.1208195,13.3595687 C17.3377319,13.3595687 16.702915,13.9943856 16.702915,14.7774732 C16.702915,15.5605608 17.3377319,16.1953776 18.1208195,16.1953776 L18.1208194,16.1953776 Z M18.1208194,21.7252051 L30.7032815,21.7252051 L30.7032815,21.7252051 C31.4863691,21.7252051 32.121186,21.0903882 32.121186,20.3073006 C32.121186,19.524213 31.4863691,18.8893961 30.7032815,18.8893961 L18.1208195,18.8893961 L18.1208194,18.8893961 C17.3377318,18.8893961 16.702915,19.524213 16.702915,20.3073006 C16.702915,21.0903882 17.3377318,21.7252051 18.1208194,21.7252051 L18.1208194,21.7252051 Z" id="形状"></path>
                    </g>
                </g>
            </g>
        </g>
    </g>
</svg>